<mxfile host="app.diagrams.net" agent="Mozilla/5.0 (Windows NT 10.0; Win64; x64) AppleWebKit/537.36 (KHTML, like Gecko) Chrome/131.0.0.0 Safari/537.36" version="24.7.17">
  <diagram name="PÃ¡gina-1" id="XESHvr8opRoiONMp4ptR">
    <mxGraphModel dx="1909" dy="1187" grid="1" gridSize="10" guides="1" tooltips="1" connect="1" arrows="1" fold="1" page="1" pageScale="1" pageWidth="827" pageHeight="1169" math="0" shadow="0">
      <root>
        <mxCell id="0" />
        <mxCell id="1" parent="0" />
        <mxCell id="RnV5EmQDhYIeNABU19LQ-1" value="Actor" style="shape=umlActor;verticalLabelPosition=bottom;verticalAlign=top;html=1;outlineConnect=0;" vertex="1" parent="1">
          <mxGeometry x="50" y="360" width="30" height="60" as="geometry" />
        </mxCell>
        <mxCell id="RnV5EmQDhYIeNABU19LQ-3" value="" style="endArrow=classic;html=1;rounded=0;" edge="1" parent="1">
          <mxGeometry relative="1" as="geometry">
            <mxPoint x="90" y="389.5" as="sourcePoint" />
            <mxPoint x="190" y="389.5" as="targetPoint" />
          </mxGeometry>
        </mxCell>
        <mxCell id="RnV5EmQDhYIeNABU19LQ-8" value="Include" style="edgeLabel;html=1;align=center;verticalAlign=middle;resizable=0;points=[];" vertex="1" connectable="0" parent="RnV5EmQDhYIeNABU19LQ-3">
          <mxGeometry x="-0.124" relative="1" as="geometry">
            <mxPoint as="offset" />
          </mxGeometry>
        </mxCell>
        <mxCell id="RnV5EmQDhYIeNABU19LQ-9" value="Buscar vuelo" style="ellipse;whiteSpace=wrap;html=1;" vertex="1" parent="1">
          <mxGeometry x="190" y="350" width="120" height="80" as="geometry" />
        </mxCell>
        <mxCell id="RnV5EmQDhYIeNABU19LQ-10" value="" style="endArrow=classic;html=1;rounded=0;" edge="1" parent="1">
          <mxGeometry relative="1" as="geometry">
            <mxPoint x="314" y="389.5" as="sourcePoint" />
            <mxPoint x="414" y="389.5" as="targetPoint" />
          </mxGeometry>
        </mxCell>
        <mxCell id="RnV5EmQDhYIeNABU19LQ-28" value="Include" style="edgeLabel;html=1;align=center;verticalAlign=middle;resizable=0;points=[];" vertex="1" connectable="0" parent="RnV5EmQDhYIeNABU19LQ-10">
          <mxGeometry x="0.016" y="-2" relative="1" as="geometry">
            <mxPoint as="offset" />
          </mxGeometry>
        </mxCell>
        <mxCell id="RnV5EmQDhYIeNABU19LQ-17" value="Destino y fecha&lt;div&gt;&lt;br&gt;&lt;/div&gt;" style="ellipse;whiteSpace=wrap;html=1;" vertex="1" parent="1">
          <mxGeometry x="414" y="350" width="120" height="80" as="geometry" />
        </mxCell>
        <mxCell id="RnV5EmQDhYIeNABU19LQ-19" value="" style="endArrow=classic;html=1;rounded=0;" edge="1" parent="1">
          <mxGeometry relative="1" as="geometry">
            <mxPoint x="929.5" y="430" as="sourcePoint" />
            <mxPoint x="929.5" y="550" as="targetPoint" />
          </mxGeometry>
        </mxCell>
        <mxCell id="RnV5EmQDhYIeNABU19LQ-22" value="Extends" style="edgeLabel;html=1;align=center;verticalAlign=middle;resizable=0;points=[];" vertex="1" connectable="0" parent="RnV5EmQDhYIeNABU19LQ-19">
          <mxGeometry x="-0.0267" y="-2" relative="1" as="geometry">
            <mxPoint as="offset" />
          </mxGeometry>
        </mxCell>
        <mxCell id="RnV5EmQDhYIeNABU19LQ-24" value="Hacer reserva&lt;div&gt;&lt;br&gt;&lt;/div&gt;" style="ellipse;whiteSpace=wrap;html=1;" vertex="1" parent="1">
          <mxGeometry x="640" y="350" width="120" height="80" as="geometry" />
        </mxCell>
        <mxCell id="RnV5EmQDhYIeNABU19LQ-25" value="" style="endArrow=classic;html=1;rounded=0;" edge="1" parent="1">
          <mxGeometry relative="1" as="geometry">
            <mxPoint x="473.5" y="430" as="sourcePoint" />
            <mxPoint x="473.5" y="550" as="targetPoint" />
          </mxGeometry>
        </mxCell>
        <mxCell id="RnV5EmQDhYIeNABU19LQ-29" value="Extends" style="edgeLabel;html=1;align=center;verticalAlign=middle;resizable=0;points=[];" vertex="1" connectable="0" parent="RnV5EmQDhYIeNABU19LQ-25">
          <mxGeometry x="-0.01" relative="1" as="geometry">
            <mxPoint as="offset" />
          </mxGeometry>
        </mxCell>
        <mxCell id="RnV5EmQDhYIeNABU19LQ-27" value="Fecha no disponible&lt;div&gt;&lt;br&gt;&lt;/div&gt;" style="ellipse;whiteSpace=wrap;html=1;" vertex="1" parent="1">
          <mxGeometry x="414" y="550" width="120" height="80" as="geometry" />
        </mxCell>
        <mxCell id="RnV5EmQDhYIeNABU19LQ-30" value="" style="endArrow=classic;html=1;rounded=0;" edge="1" parent="1">
          <mxGeometry relative="1" as="geometry">
            <mxPoint x="540" y="389.5" as="sourcePoint" />
            <mxPoint x="640" y="389.5" as="targetPoint" />
          </mxGeometry>
        </mxCell>
        <mxCell id="RnV5EmQDhYIeNABU19LQ-39" value="Include" style="edgeLabel;html=1;align=center;verticalAlign=middle;resizable=0;points=[];" vertex="1" connectable="0" parent="RnV5EmQDhYIeNABU19LQ-30">
          <mxGeometry x="-0.024" y="-1" relative="1" as="geometry">
            <mxPoint as="offset" />
          </mxGeometry>
        </mxCell>
        <mxCell id="RnV5EmQDhYIeNABU19LQ-32" value="Cancelar vuelo&lt;div&gt;&lt;br&gt;&lt;/div&gt;" style="ellipse;whiteSpace=wrap;html=1;" vertex="1" parent="1">
          <mxGeometry x="870" y="550" width="120" height="80" as="geometry" />
        </mxCell>
        <mxCell id="RnV5EmQDhYIeNABU19LQ-36" value="" style="endArrow=classic;html=1;rounded=0;" edge="1" parent="1">
          <mxGeometry relative="1" as="geometry">
            <mxPoint x="770" y="389.5" as="sourcePoint" />
            <mxPoint x="870" y="389.5" as="targetPoint" />
          </mxGeometry>
        </mxCell>
        <mxCell id="RnV5EmQDhYIeNABU19LQ-41" value="Include" style="edgeLabel;html=1;align=center;verticalAlign=middle;resizable=0;points=[];" vertex="1" connectable="0" parent="RnV5EmQDhYIeNABU19LQ-36">
          <mxGeometry x="0.016" y="2" relative="1" as="geometry">
            <mxPoint as="offset" />
          </mxGeometry>
        </mxCell>
        <mxCell id="RnV5EmQDhYIeNABU19LQ-38" value="Reserva confirmada" style="ellipse;whiteSpace=wrap;html=1;" vertex="1" parent="1">
          <mxGeometry x="870" y="350" width="120" height="80" as="geometry" />
        </mxCell>
        <mxCell id="RnV5EmQDhYIeNABU19LQ-42" value="Actor" style="shape=umlActor;verticalLabelPosition=bottom;verticalAlign=top;html=1;outlineConnect=0;" vertex="1" parent="1">
          <mxGeometry x="50" y="820" width="30" height="60" as="geometry" />
        </mxCell>
        <mxCell id="RnV5EmQDhYIeNABU19LQ-44" value="" style="endArrow=classic;html=1;rounded=0;" edge="1" parent="1">
          <mxGeometry relative="1" as="geometry">
            <mxPoint x="90" y="860" as="sourcePoint" />
            <mxPoint x="190" y="860" as="targetPoint" />
          </mxGeometry>
        </mxCell>
        <mxCell id="RnV5EmQDhYIeNABU19LQ-57" value="Include" style="edgeLabel;html=1;align=center;verticalAlign=middle;resizable=0;points=[];" vertex="1" connectable="0" parent="RnV5EmQDhYIeNABU19LQ-44">
          <mxGeometry x="0.0838" y="-2" relative="1" as="geometry">
            <mxPoint as="offset" />
          </mxGeometry>
        </mxCell>
        <mxCell id="RnV5EmQDhYIeNABU19LQ-46" value="Crear" style="ellipse;whiteSpace=wrap;html=1;" vertex="1" parent="1">
          <mxGeometry x="190" y="820" width="120" height="80" as="geometry" />
        </mxCell>
        <mxCell id="RnV5EmQDhYIeNABU19LQ-47" value="" style="endArrow=classic;html=1;rounded=0;" edge="1" parent="1">
          <mxGeometry relative="1" as="geometry">
            <mxPoint x="314" y="859.5" as="sourcePoint" />
            <mxPoint x="414" y="859.5" as="targetPoint" />
          </mxGeometry>
        </mxCell>
        <mxCell id="RnV5EmQDhYIeNABU19LQ-58" value="Incude" style="edgeLabel;html=1;align=center;verticalAlign=middle;resizable=0;points=[];" vertex="1" connectable="0" parent="RnV5EmQDhYIeNABU19LQ-47">
          <mxGeometry x="-0.0343" y="-2" relative="1" as="geometry">
            <mxPoint as="offset" />
          </mxGeometry>
        </mxCell>
        <mxCell id="RnV5EmQDhYIeNABU19LQ-50" value="Modificar" style="ellipse;whiteSpace=wrap;html=1;" vertex="1" parent="1">
          <mxGeometry x="414" y="820" width="120" height="80" as="geometry" />
        </mxCell>
        <mxCell id="RnV5EmQDhYIeNABU19LQ-51" value="" style="endArrow=classic;html=1;rounded=0;" edge="1" parent="1">
          <mxGeometry relative="1" as="geometry">
            <mxPoint x="540" y="859.52" as="sourcePoint" />
            <mxPoint x="640" y="859.52" as="targetPoint" />
          </mxGeometry>
        </mxCell>
        <mxCell id="RnV5EmQDhYIeNABU19LQ-59" value="Include" style="edgeLabel;html=1;align=center;verticalAlign=middle;resizable=0;points=[];" vertex="1" connectable="0" parent="RnV5EmQDhYIeNABU19LQ-51">
          <mxGeometry x="0.1314" y="-2" relative="1" as="geometry">
            <mxPoint as="offset" />
          </mxGeometry>
        </mxCell>
        <mxCell id="RnV5EmQDhYIeNABU19LQ-53" value="Cancelar rutas" style="ellipse;whiteSpace=wrap;html=1;" vertex="1" parent="1">
          <mxGeometry x="640" y="820" width="120" height="80" as="geometry" />
        </mxCell>
        <mxCell id="RnV5EmQDhYIeNABU19LQ-54" value="" style="endArrow=classic;html=1;rounded=0;" edge="1" parent="1">
          <mxGeometry relative="1" as="geometry">
            <mxPoint x="770" y="859.52" as="sourcePoint" />
            <mxPoint x="870" y="859.52" as="targetPoint" />
          </mxGeometry>
        </mxCell>
        <mxCell id="RnV5EmQDhYIeNABU19LQ-60" value="Include" style="edgeLabel;html=1;align=center;verticalAlign=middle;resizable=0;points=[];" vertex="1" connectable="0" parent="RnV5EmQDhYIeNABU19LQ-54">
          <mxGeometry x="0.0838" relative="1" as="geometry">
            <mxPoint as="offset" />
          </mxGeometry>
        </mxCell>
        <mxCell id="RnV5EmQDhYIeNABU19LQ-56" value="Horario de vuelo" style="ellipse;whiteSpace=wrap;html=1;" vertex="1" parent="1">
          <mxGeometry x="870" y="820" width="120" height="80" as="geometry" />
        </mxCell>
        <mxCell id="RnV5EmQDhYIeNABU19LQ-61" value="" style="endArrow=classic;html=1;rounded=0;" edge="1" parent="1">
          <mxGeometry relative="1" as="geometry">
            <mxPoint x="473.52" y="910" as="sourcePoint" />
            <mxPoint x="474" y="1000" as="targetPoint" />
          </mxGeometry>
        </mxCell>
        <mxCell id="RnV5EmQDhYIeNABU19LQ-68" value="Include" style="edgeLabel;html=1;align=center;verticalAlign=middle;resizable=0;points=[];" vertex="1" connectable="0" parent="RnV5EmQDhYIeNABU19LQ-61">
          <mxGeometry x="0.0321" y="3" relative="1" as="geometry">
            <mxPoint y="-1" as="offset" />
          </mxGeometry>
        </mxCell>
        <mxCell id="RnV5EmQDhYIeNABU19LQ-64" value="Supervisar y gestionar reserva" style="ellipse;whiteSpace=wrap;html=1;" vertex="1" parent="1">
          <mxGeometry x="414" y="1010" width="120" height="80" as="geometry" />
        </mxCell>
        <mxCell id="RnV5EmQDhYIeNABU19LQ-65" value="" style="endArrow=classic;html=1;rounded=0;" edge="1" parent="1">
          <mxGeometry relative="1" as="geometry">
            <mxPoint x="473.52" y="1100" as="sourcePoint" />
            <mxPoint x="473.52" y="1180" as="targetPoint" />
          </mxGeometry>
        </mxCell>
        <mxCell id="RnV5EmQDhYIeNABU19LQ-69" value="Include" style="edgeLabel;html=1;align=center;verticalAlign=middle;resizable=0;points=[];" vertex="1" connectable="0" parent="RnV5EmQDhYIeNABU19LQ-65">
          <mxGeometry x="0.125" y="-1" relative="1" as="geometry">
            <mxPoint y="-1" as="offset" />
          </mxGeometry>
        </mxCell>
        <mxCell id="RnV5EmQDhYIeNABU19LQ-67" value="Gestionar y asignar asientos" style="ellipse;whiteSpace=wrap;html=1;" vertex="1" parent="1">
          <mxGeometry x="414" y="1190" width="120" height="80" as="geometry" />
        </mxCell>
      </root>
    </mxGraphModel>
  </diagram>
</mxfile>
